<svg xmlns="http://www.w3.org/2000/svg" width="1129" height="663" viewBox="0 0 1129 663"
  class="featureSvg_src-components-HomepageFeatures-styles-module" role="img">
  <title>Focus on What Matters</title>
  <circle cx="321" cy="321" r="321" fill="#f2f2f2"></circle>
  <ellipse cx="559" cy="635.5" rx="514" ry="27.5" fill="#3f3d56"></ellipse>
  <ellipse cx="558" cy="627" rx="460" ry="22" opacity="0.2"></ellipse>
  <path fill="#3f3d56" d="M131 152.5h840v50H131z"></path>
  <path
    d="M131 608.83a21.67 21.67 0 0 0 21.67 21.67h796.66A21.67 21.67 0 0 0 971 608.83V177.5H131ZM949.33 117.5H152.67A21.67 21.67 0 0 0 131 139.17v38.33h840v-38.33a21.67 21.67 0 0 0-21.67-21.67Z"
    fill="#3f3d56"></path>
  <path d="M949.33 117.5H152.67A21.67 21.67 0 0 0 131 139.17v38.33h840v-38.33a21.67 21.67 0 0 0-21.67-21.67Z"
    opacity="0.2"></path>
  <circle cx="181" cy="147.5" r="13" fill="#3f3d56"></circle>
  <circle cx="217" cy="147.5" r="13" fill="#3f3d56"></circle>
  <circle cx="253" cy="147.5" r="13" fill="#3f3d56"></circle>
  <rect x="603" y="272.5" width="284" height="22" rx="5.476" fill="#2e8555"></rect>
  <rect x="537" y="352.5" width="416" height="15" rx="5.476" fill="#2e8555"></rect>
  <rect x="537" y="396.5" width="416" height="15" rx="5.476" fill="#2e8555"></rect>
  <rect x="537" y="440.5" width="416" height="15" rx="5.476" fill="#2e8555"></rect>
  <rect x="537" y="484.5" width="416" height="15" rx="5.476" fill="#2e8555"></rect>
  <rect x="865" y="552.5" width="88" height="26" rx="7.028" fill="#3ecc5f"></rect>
  <path
    d="M1053.103 506.116a30.114 30.114 0 0 0 3.983-15.266c0-13.797-8.544-24.98-19.083-24.98s-19.082 11.183-19.082 24.98a30.114 30.114 0 0 0 3.983 15.266 31.248 31.248 0 0 0 0 30.532 31.248 31.248 0 0 0 0 30.532 31.248 31.248 0 0 0 0 30.532 30.114 30.114 0 0 0-3.983 15.266c0 13.797 8.543 24.981 19.082 24.981s19.083-11.184 19.083-24.98a30.114 30.114 0 0 0-3.983-15.267 31.248 31.248 0 0 0 0-30.532 31.248 31.248 0 0 0 0-30.532 31.248 31.248 0 0 0 0-30.532Z"
    fill="#3f3d56"></path>
  <ellipse cx="1038.003" cy="460.318" rx="19.083" ry="24.981" fill="#3f3d56"></ellipse>
  <ellipse cx="1038.003" cy="429.786" rx="19.083" ry="24.981" fill="#3f3d56"></ellipse>
  <path
    d="M1109.439 220.845a91.61 91.61 0 0 0 7.106-10.461l-50.14-8.235 54.228.403a91.566 91.566 0 0 0 1.746-72.426l-72.755 37.742 67.097-49.321A91.413 91.413 0 1 0 965.75 220.845a91.458 91.458 0 0 0-10.425 16.67l65.087 33.814-69.4-23.292a91.46 91.46 0 0 0 14.738 85.837 91.406 91.406 0 1 0 143.689 0 91.418 91.418 0 0 0 0-113.03Z"
    fill="#3ecc5f" fill-rule="evenodd"></path>
  <path
    d="M946.188 277.36a91.013 91.013 0 0 0 19.562 56.514 91.406 91.406 0 1 0 143.689 0c12.25-15.553-163.25-66.774-163.25-56.515Z"
    opacity="0.1"></path>
  <path
    d="M388.511 329.334a3.603 3.603 0 0 1-.65-.067 3.344 3.344 0 0 1-.624-.185 3.447 3.447 0 0 1-.572-.306 5.027 5.027 0 0 1-.504-.411 3.887 3.887 0 0 1-.41-.504 3.275 3.275 0 0 1-.558-1.845 3.602 3.602 0 0 1 .067-.65 3.826 3.826 0 0 1 .184-.624 3.489 3.489 0 0 1 .307-.57 3.197 3.197 0 0 1 .914-.916 3.447 3.447 0 0 1 .572-.305 3.344 3.344 0 0 1 .624-.186 3.07 3.07 0 0 1 1.3 0 3.223 3.223 0 0 1 1.195.49 5.028 5.028 0 0 1 .504.412 4.88 4.88 0 0 1 .411.504 3.382 3.382 0 0 1 .306.571 3.478 3.478 0 0 1 .252 1.274 3.364 3.364 0 0 1-.969 2.349 5.027 5.027 0 0 1-.504.411 3.306 3.306 0 0 1-1.845.558m26.542-1.66a3.388 3.388 0 0 1-2.35-.968 5.042 5.042 0 0 1-.41-.504 3.275 3.275 0 0 1-.558-1.845 3.387 3.387 0 0 1 .967-2.349 5.026 5.026 0 0 1 .505-.411 3.447 3.447 0 0 1 .572-.305 3.343 3.343 0 0 1 .623-.186 3.07 3.07 0 0 1 1.3 0 3.224 3.224 0 0 1 1.195.49 5.026 5.026 0 0 1 .504.412 3.388 3.388 0 0 1 .97 2.35 3.726 3.726 0 0 1-.067.65 3.374 3.374 0 0 1-.186.623 4.715 4.715 0 0 1-.305.57 4.88 4.88 0 0 1-.412.505 5.026 5.026 0 0 1-.504.412 3.305 3.305 0 0 1-1.844.557"
    fill-rule="evenodd"></path>
</svg>