<svg height="687.962" viewBox="0 0 1088 687.962" width="1088" xmlns="http://www.w3.org/2000/svg"><path d="m961.81 454.442c-5.27 45.15-16.22 81.4-31.25 110.31-20 38.52-54.21 54.04-84.77 70.28a193.275 193.275 0 0 1 -27.46 11.94c-55.61 19.3-117.85 14.18-166.74 3.99a657.282 657.282 0 0 0 -104.09-13.16q-14.97-.675-29.97-.67c-15.42.02-293.07 5.29-360.67-131.57-16.69-33.76-28.13-75-32.24-125.27-11.63-142.12 52.29-235.46 134.74-296.47 155.97-115.41 369.76-110.57 523.43 7.88 102.36 78.9 198.2 198.31 179.02 362.74z" fill="#3f3d56"/><path d="m930.56 564.752c-20 38.52-47.21 64.04-77.77 80.28a193.272 193.272 0 0 1 -27.46 11.94c-55.61 19.3-117.85 14.18-166.74 3.99a657.3 657.3 0 0 0 -104.09-13.16q-14.97-.675-29.97-.67-23.13.03-46.25 1.72c-100.17 7.36-253.82-6.43-321.42-143.29l169.14-327.6 62.95 161.619 20.09 51.59 55.37-75.98 28.59-39.229 130.2 149.27 36.8-81.27 254.78 207.919 14.21 11.59z" fill="#f2f2f2"/><path d="m302 282.962 26-57 36 83-31-60z" opacity=".1"/><path d="m554.5 647.802q-14.97-.675-29.97-.67l-115.49-255.96z" opacity=".1"/><path d="m464.411 315.191 28.589-22.229 130 150-132-128z" opacity=".1"/><path d="m852.79 645.032a193.265 193.265 0 0 1 -27.46 11.94l-202.13-231.74z" opacity=".1"/><g fill="#f2f2f2"><circle cx="482" cy="101.962" r="3"/><circle cx="399" cy="204.962" r="3"/><circle cx="602" cy="222.962" r="2"/><circle cx="182" cy="267.962" r="2"/><circle cx="614" cy="98.962" r="2"/><circle cx="738" cy="194.962" r="2"/><circle cx="860" cy="346.962" r="2"/><path d="m306 121.222h-2.76v-2.76h-1.48v2.76h-2.76v1.478h2.76v2.759h1.48v-2.759h2.76z"/><path d="m848 424.222h-2.76v-2.76h-1.48v2.76h-2.76v1.478h2.76v2.759h1.48v-2.759h2.76z"/></g><path d="m1088 613.962c0 16.569-243.557 74-544 74s-544-57.431-544-74 243.557 14 544 14 544-30.568 544-14z" fill="#3f3d56"/><path d="m1088 613.962c0 16.569-243.557 74-544 74s-544-57.431-544-74 243.557 14 544 14 544-30.568 544-14z" opacity=".1"/><ellipse cx="544" cy="613.962" fill="#3f3d56" rx="544" ry="30"/><path d="m568 571.962c0 33.137-14.775 24-33 24s-33 9.137-33-24 33-96 33-96 33 62.863 33 96z" fill="#ff6584"/><path d="m550 584.641c0 15.062-6.716 10.909-15 10.909s-15 4.153-15-10.909 15-43.636 15-43.636 15 28.576 15 43.636z" opacity=".1"/><rect fill="#2f2e41" height="18" rx="9" width="92" x="489" y="604.962"/><rect fill="#2f2e41" height="18" rx="9" width="92" x="489" y="586.962"/><path d="m137 490.528c0 55.343 34.719 100.126 77.626 100.126" fill="#3f3d56"/><path d="m214.626 590.654c0-55.965 38.745-101.251 86.626-101.251" fill="#6c63ff"/><path d="m165.125 495.545c0 52.57 22.14 95.109 49.5 95.109" fill="#6c63ff"/><path d="m214.626 590.654c0-71.511 44.783-129.377 100.126-129.377" fill="#3f3d56"/><path d="m198.3 591.36s11.009-.339 14.326-2.7 16.934-5.183 17.757-1.395 16.544 18.844 4.115 18.945-28.879-1.936-32.19-3.953-4.008-10.897-4.008-10.897z" fill="#a8a8a8"/><path d="m234.716 604.89c-12.429.1-28.879-1.936-32.19-3.953-2.522-1.536-3.527-7.048-3.863-9.591l-.368.014s.7 8.879 4.009 10.9 19.761 4.053 32.19 3.953c3.588-.029 4.827-1.305 4.759-3.2-.498 1.142-1.867 1.855-4.537 1.877z" opacity=".2"/><path d="m721.429 527.062c0 38.029 23.857 68.8 53.341 68.8" fill="#3f3d56"/><path d="m774.769 595.863c0-38.456 26.623-69.575 59.525-69.575" fill="#6c63ff"/><path d="m740.755 530.509c0 36.124 15.213 65.354 34.014 65.354" fill="#6c63ff"/><path d="m774.769 595.863c0-49.139 30.773-88.9 68.8-88.9" fill="#3f3d56"/><path d="m763.548 596.348s7.565-.233 9.844-1.856 11.636-3.562 12.2-.958 11.368 12.949 2.828 13.018-19.844-1.33-22.119-2.716-2.753-7.488-2.753-7.488z" fill="#a8a8a8"/><path d="m788.574 605.645c-8.54.069-19.844-1.33-22.119-2.716-1.733-1.056-2.423-4.843-2.654-6.59l-.253.01s.479 6.1 2.755 7.487 13.579 2.785 22.119 2.716c2.465-.02 3.317-.9 3.27-2.2-.343.788-1.283 1.278-3.118 1.293z" opacity=".2"/><path d="m893.813 618.699s11.36-1.729 14.5-4.591 16.89-7.488 18.217-3.667 19.494 17.447 6.633 19.107-30.153 1.609-33.835-.065-5.515-10.784-5.515-10.784z" fill="#a8a8a8"/><path d="m933.228 628.154c-12.86 1.659-30.153 1.609-33.835-.065-2.8-1.275-4.535-6.858-5.2-9.45l-.379.061s1.833 9.109 5.516 10.783 20.975 1.725 33.835.065c3.712-.479 4.836-1.956 4.529-3.906-.375 1.246-1.703 2.156-4.466 2.512z" opacity=".2"/><path d="m614.26 617.881s9.587-1.459 12.237-3.875 14.255-6.32 15.374-3.095 16.452 14.725 5.6 16.125-25.448 1.358-28.555-.055-4.656-9.1-4.656-9.1z" fill="#a8a8a8"/><path d="m647.524 625.856c-10.853 1.4-25.448 1.358-28.555-.055-2.367-1.076-3.827-5.788-4.39-7.976l-.32.051s1.547 7.687 4.655 9.1 17.7 1.456 28.555.055c3.133-.4 4.081-1.651 3.822-3.3-.314 1.057-1.435 1.825-3.767 2.125z" opacity=".2"/><path d="m122.389 613.09s7.463-1.136 9.527-3.016 11.1-4.92 11.969-2.409 12.808 11.463 4.358 12.553-19.811 1.057-22.23-.043-3.624-7.085-3.624-7.085z" fill="#a8a8a8"/><path d="m148.285 619.302c-8.449 1.09-19.811 1.057-22.23-.043-1.842-.838-2.979-4.506-3.417-6.209l-.249.04s1.2 5.984 3.624 7.085 13.781 1.133 22.23.043c2.439-.315 3.177-1.285 2.976-2.566-.246.818-1.119 1.416-2.934 1.65z" opacity=".2"/><path d="m383.7 601.318c0 30.22-42.124 20.873-93.7 20.873s-93.074 9.347-93.074-20.873 42.118-36.793 93.694-36.793 93.08 6.573 93.08 36.793z" opacity=".1"/><path d="m383.7 593.881c0 30.22-42.124 20.873-93.7 20.873s-93.074 9.347-93.074-20.873 42.114-36.8 93.69-36.8 93.084 6.576 93.084 36.8z" fill="#3f3d56"/><path d="m360.175 475.732h91.791v37.153h-91.791z" fill="#fff" fill-rule="evenodd"/><path d="m320.836 479.556a2.732 2.732 0 0 1 -2.732-2.732 8.2 8.2 0 0 0 -16.391 0 2.732 2.732 0 0 1 -5.464 0 13.66 13.66 0 0 1 27.319 0 2.732 2.732 0 0 1 -2.732 2.732" fill-rule="evenodd"/></svg>